<svg id="visual" viewBox="0 0 1920 1080" width="1920" height="1080" xmlns="http://www.w3.org/2000/svg" xmlns:xlink="http://www.w3.org/1999/xlink" version="1.1"><rect x="0" y="0" width="1920" height="1080" fill="#FFFFFF"></rect><path d="M0 580L53.3 566.8C106.7 553.7 213.3 527.3 320 505C426.7 482.7 533.3 464.3 640 458.7C746.7 453 853.3 460 960 457.3C1066.7 454.7 1173.3 442.3 1280 459.8C1386.7 477.3 1493.3 524.7 1600 533.5C1706.7 542.3 1813.3 512.7 1866.7 497.8L1920 483L1920 1081L1866.7 1081C1813.3 1081 1706.7 1081 1600 1081C1493.3 1081 1386.7 1081 1280 1081C1173.3 1081 1066.7 1081 960 1081C853.3 1081 746.7 1081 640 1081C533.3 1081 426.7 1081 320 1081C213.3 1081 106.7 1081 53.3 1081L0 1081Z" fill="#ffffff"></path><path d="M0 588L53.3 605.3C106.7 622.7 213.3 657.3 320 652.5C426.7 647.7 533.3 603.3 640 593C746.7 582.7 853.3 606.3 960 629.8C1066.7 653.3 1173.3 676.7 1280 682.5C1386.7 688.3 1493.3 676.7 1600 676.5C1706.7 676.3 1813.3 687.7 1866.7 693.3L1920 699L1920 1081L1866.7 1081C1813.3 1081 1706.7 1081 1600 1081C1493.3 1081 1386.7 1081 1280 1081C1173.3 1081 1066.7 1081 960 1081C853.3 1081 746.7 1081 640 1081C533.3 1081 426.7 1081 320 1081C213.3 1081 106.7 1081 53.3 1081L0 1081Z" fill="#d0eceb"></path><path d="M0 674L53.3 685.2C106.7 696.3 213.3 718.7 320 715.7C426.7 712.7 533.3 684.3 640 694C746.7 703.7 853.3 751.3 960 764.8C1066.7 778.3 1173.3 757.7 1280 759.3C1386.7 761 1493.3 785 1600 777.3C1706.7 769.7 1813.3 730.3 1866.7 710.7L1920 691L1920 1081L1866.7 1081C1813.3 1081 1706.7 1081 1600 1081C1493.3 1081 1386.7 1081 1280 1081C1173.3 1081 1066.7 1081 960 1081C853.3 1081 746.7 1081 640 1081C533.3 1081 426.7 1081 320 1081C213.3 1081 106.7 1081 53.3 1081L0 1081Z" fill="#a0d9d8"></path><path d="M0 781L53.3 785C106.7 789 213.3 797 320 807.3C426.7 817.7 533.3 830.3 640 835.8C746.7 841.3 853.3 839.7 960 826.7C1066.7 813.7 1173.3 789.3 1280 793.3C1386.7 797.3 1493.3 829.7 1600 848C1706.7 866.3 1813.3 870.7 1866.7 872.8L1920 875L1920 1081L1866.7 1081C1813.3 1081 1706.7 1081 1600 1081C1493.3 1081 1386.7 1081 1280 1081C1173.3 1081 1066.7 1081 960 1081C853.3 1081 746.7 1081 640 1081C533.3 1081 426.7 1081 320 1081C213.3 1081 106.7 1081 53.3 1081L0 1081Z" fill="#6ac6c5"></path><path d="M0 954L53.3 944.5C106.7 935 213.3 916 320 919.7C426.7 923.3 533.3 949.7 640 954C746.7 958.3 853.3 940.7 960 934C1066.7 927.3 1173.3 931.7 1280 926.2C1386.7 920.7 1493.3 905.3 1600 915.7C1706.7 926 1813.3 962 1866.7 980L1920 998L1920 1081L1866.7 1081C1813.3 1081 1706.7 1081 1600 1081C1493.3 1081 1386.7 1081 1280 1081C1173.3 1081 1066.7 1081 960 1081C853.3 1081 746.7 1081 640 1081C533.3 1081 426.7 1081 320 1081C213.3 1081 106.7 1081 53.3 1081L0 1081Z" fill="#04b2b2"></path></svg>