<svg id="visual" viewBox="0 0 1920 1080" width="1920" height="1080" xmlns="http://www.w3.org/2000/svg" xmlns:xlink="http://www.w3.org/1999/xlink" version="1.1"><path d="M0 347L29.2 350.5C58.3 354 116.7 361 174.8 355.5C233 350 291 332 349.2 314C407.3 296 465.7 278 523.8 272.7C582 267.3 640 274.7 698.2 281.8C756.3 289 814.7 296 872.8 303.2C931 310.3 989 317.7 1047.2 308.7C1105.3 299.7 1163.7 274.3 1221.8 252.7C1280 231 1338 213 1396.2 227.5C1454.3 242 1512.7 289 1570.8 298C1629 307 1687 278 1745.2 272.5C1803.3 267 1861.7 285 1890.8 294L1920 303L1920 0L1890.8 0C1861.7 0 1803.3 0 1745.2 0C1687 0 1629 0 1570.8 0C1512.7 0 1454.3 0 1396.2 0C1338 0 1280 0 1221.8 0C1163.7 0 1105.3 0 1047.2 0C989 0 931 0 872.8 0C814.7 0 756.3 0 698.2 0C640 0 582 0 523.8 0C465.7 0 407.3 0 349.2 0C291 0 233 0 174.8 0C116.7 0 58.3 0 29.2 0L0 0Z" fill="#ffffff"></path><path d="M0 455L29.2 462.2C58.3 469.3 116.7 483.7 174.8 492.7C233 501.7 291 505.3 349.2 499.8C407.3 494.3 465.7 479.7 523.8 468.8C582 458 640 451 698.2 454.7C756.3 458.3 814.7 472.7 872.8 478C931 483.3 989 479.7 1047.2 479.7C1105.3 479.7 1163.7 483.3 1221.8 478C1280 472.7 1338 458.3 1396.2 471C1454.3 483.7 1512.7 523.3 1570.8 534.2C1629 545 1687 527 1745.2 527C1803.3 527 1861.7 545 1890.8 554L1920 563L1920 301L1890.8 292C1861.7 283 1803.3 265 1745.2 270.5C1687 276 1629 305 1570.8 296C1512.7 287 1454.3 240 1396.2 225.5C1338 211 1280 229 1221.8 250.7C1163.7 272.3 1105.3 297.7 1047.2 306.7C989 315.7 931 308.3 872.8 301.2C814.7 294 756.3 287 698.2 279.8C640 272.7 582 265.3 523.8 270.7C465.7 276 407.3 294 349.2 312C291 330 233 348 174.8 353.5C116.7 359 58.3 352 29.2 348.5L0 345Z" fill="#d0eceb"></path><path d="M0 541L29.2 559C58.3 577 116.7 613 174.8 623.8C233 634.7 291 620.3 349.2 611.3C407.3 602.3 465.7 598.7 523.8 598.7C582 598.7 640 602.3 698.2 609.5C756.3 616.7 814.7 627.3 872.8 632.7C931 638 989 638 1047.2 638C1105.3 638 1163.7 638 1221.8 627.2C1280 616.3 1338 594.7 1396.2 594.7C1454.3 594.7 1512.7 616.3 1570.8 618.2C1629 620 1687 602 1745.2 614.7C1803.3 627.3 1861.7 670.7 1890.8 692.3L1920 714L1920 561L1890.8 552C1861.7 543 1803.3 525 1745.2 525C1687 525 1629 543 1570.8 532.2C1512.7 521.3 1454.3 481.7 1396.2 469C1338 456.3 1280 470.7 1221.8 476C1163.7 481.3 1105.3 477.7 1047.2 477.7C989 477.7 931 481.3 872.8 476C814.7 470.7 756.3 456.3 698.2 452.7C640 449 582 456 523.8 466.8C465.7 477.7 407.3 492.3 349.2 497.8C291 503.3 233 499.7 174.8 490.7C116.7 481.7 58.3 467.3 29.2 460.2L0 453Z" fill="#a0d9d8"></path><path d="M0 865L29.2 875.8C58.3 886.7 116.7 908.3 174.8 924.5C233 940.7 291 951.3 349.2 954.8C407.3 958.3 465.7 954.7 523.8 960.2C582 965.7 640 980.3 698.2 973.2C756.3 966 814.7 937 872.8 928C931 919 989 930 1047.2 935.5C1105.3 941 1163.7 941 1221.8 944.5C1280 948 1338 955 1396.2 951.3C1454.3 947.7 1512.7 933.3 1570.8 928C1629 922.7 1687 926.3 1745.2 933.5C1803.3 940.7 1861.7 951.3 1890.8 956.7L1920 962L1920 712L1890.8 690.3C1861.7 668.7 1803.3 625.3 1745.2 612.7C1687 600 1629 618 1570.8 616.2C1512.7 614.3 1454.3 592.7 1396.2 592.7C1338 592.7 1280 614.3 1221.8 625.2C1163.7 636 1105.3 636 1047.2 636C989 636 931 636 872.8 630.7C814.7 625.3 756.3 614.7 698.2 607.5C640 600.3 582 596.7 523.8 596.7C465.7 596.7 407.3 600.3 349.2 609.3C291 618.3 233 632.7 174.8 621.8C116.7 611 58.3 575 29.2 557L0 539Z" fill="#6ac6c5"></path><path d="M0 1081L29.2 1081C58.3 1081 116.7 1081 174.8 1081C233 1081 291 1081 349.2 1081C407.3 1081 465.7 1081 523.8 1081C582 1081 640 1081 698.2 1081C756.3 1081 814.7 1081 872.8 1081C931 1081 989 1081 1047.2 1081C1105.3 1081 1163.7 1081 1221.8 1081C1280 1081 1338 1081 1396.2 1081C1454.3 1081 1512.7 1081 1570.8 1081C1629 1081 1687 1081 1745.2 1081C1803.3 1081 1861.7 1081 1890.8 1081L1920 1081L1920 960L1890.8 954.7C1861.7 949.3 1803.3 938.7 1745.2 931.5C1687 924.3 1629 920.7 1570.8 926C1512.7 931.3 1454.3 945.7 1396.2 949.3C1338 953 1280 946 1221.8 942.5C1163.7 939 1105.3 939 1047.2 933.5C989 928 931 917 872.8 926C814.7 935 756.3 964 698.2 971.2C640 978.3 582 963.7 523.8 958.2C465.7 952.7 407.3 956.3 349.2 952.8C291 949.3 233 938.7 174.8 922.5C116.7 906.3 58.3 884.7 29.2 873.8L0 863Z" fill="#04b2b2"></path></svg>